<svg id="visual" viewBox="0 0 960 540" width="960" height="540" xmlns="http://www.w3.org/2000/svg" xmlns:xlink="http://www.w3.org/1999/xlink" version="1.1"><rect x="0" y="0" width="960" height="540" fill="#487E91"></rect><path d="M0 380L96 380L96 389L192 389L192 374L288 374L288 362L384 362L384 375L480 375L480 379L576 379L576 384L672 384L672 373L768 373L768 379L864 379L864 382L960 382L960 375L960 0L960 0L864 0L864 0L768 0L768 0L672 0L672 0L576 0L576 0L480 0L480 0L384 0L384 0L288 0L288 0L192 0L192 0L96 0L96 0L0 0Z" fill="#7cb0c2"></path><path d="M0 321L96 321L96 321L192 321L192 338L288 338L288 320L384 320L384 325L480 325L480 324L576 324L576 324L672 324L672 328L768 328L768 341L864 341L864 317L960 317L960 329L960 0L960 0L864 0L864 0L768 0L768 0L672 0L672 0L576 0L576 0L480 0L480 0L384 0L384 0L288 0L288 0L192 0L192 0L96 0L96 0L0 0Z" fill="#71a2b3"></path><path d="M0 292L96 292L96 288L192 288L192 292L288 292L288 288L384 288L384 295L480 295L480 297L576 297L576 291L672 291L672 279L768 279L768 286L864 286L864 296L960 296L960 280L960 0L960 0L864 0L864 0L768 0L768 0L672 0L672 0L576 0L576 0L480 0L480 0L384 0L384 0L288 0L288 0L192 0L192 0L96 0L96 0L0 0Z" fill="#6595a5"></path><path d="M0 234L96 234L96 230L192 230L192 228L288 228L288 245L384 245L384 245L480 245L480 247L576 247L576 245L672 245L672 241L768 241L768 238L864 238L864 242L960 242L960 229L960 0L960 0L864 0L864 0L768 0L768 0L672 0L672 0L576 0L576 0L480 0L480 0L384 0L384 0L288 0L288 0L192 0L192 0L96 0L96 0L0 0Z" fill="#5a8897"></path><path d="M0 184L96 184L96 186L192 186L192 194L288 194L288 198L384 198L384 196L480 196L480 191L576 191L576 200L672 200L672 204L768 204L768 197L864 197L864 186L960 186L960 201L960 0L960 0L864 0L864 0L768 0L768 0L672 0L672 0L576 0L576 0L480 0L480 0L384 0L384 0L288 0L288 0L192 0L192 0L96 0L96 0L0 0Z" fill="#507b89"></path><path d="M0 157L96 157L96 141L192 141L192 154L288 154L288 156L384 156L384 148L480 148L480 145L576 145L576 143L672 143L672 151L768 151L768 149L864 149L864 143L960 143L960 155L960 0L960 0L864 0L864 0L768 0L768 0L672 0L672 0L576 0L576 0L480 0L480 0L384 0L384 0L288 0L288 0L192 0L192 0L96 0L96 0L0 0Z" fill="#456e7b"></path><path d="M0 107L96 107L96 98L192 98L192 101L288 101L288 111L384 111L384 97L480 97L480 109L576 109L576 98L672 98L672 108L768 108L768 108L864 108L864 107L960 107L960 104L960 0L960 0L864 0L864 0L768 0L768 0L672 0L672 0L576 0L576 0L480 0L480 0L384 0L384 0L288 0L288 0L192 0L192 0L96 0L96 0L0 0Z" fill="#3a616e"></path><path d="M0 63L96 63L96 63L192 63L192 59L288 59L288 60L384 60L384 55L480 55L480 55L576 55L576 54L672 54L672 64L768 64L768 55L864 55L864 58L960 58L960 58L960 0L960 0L864 0L864 0L768 0L768 0L672 0L672 0L576 0L576 0L480 0L480 0L384 0L384 0L288 0L288 0L192 0L192 0L96 0L96 0L0 0Z" fill="#305561"></path></svg>