<svg style="object-fit:cover" id="my-svg" version="1" baseProfile="full" width="100%" height="100%" viewBox="0 0 1536 722" xmlns="http://www.w3.org/2000/svg"><rect width="1536" height="722" fill="#e3e3e3"/><defs><radialGradient id="radial-gradient" cx="0.5" cy="0.75" r="0"><stop offset="0%" stop-color="#77a6b670"/><stop offset="100%" stop-color="#395e6b70"/></radialGradient></defs><path transform="scale(1, -1)" d="M 0,722 V 0,144 C 19.520531691198293,112.31188846939257 39.04106338239659,80.62377693878514 71,97 C 102.95893661760341,113.37622306121486 147.35627816161195,177.81678071425196 178,194 C 208.64372183838805,210.18321928574804 225.5338239711554,178.10910020420704 254,171 C 282.4661760288446,163.89089979579296 322.50842595376645,181.74681846891986 355,192 C 387.49157404623355,202.25318153108014 412.4324722137791,204.90362592011357 435,189 C 457.5675277862209,173.09637407988643 477.7616851911175,138.6386778506259 502,132 C 526.2383148088825,125.3613221493741 554.5207870217511,146.54166267738285 583,143 C 611.4792129782489,139.45833732261715 640.1551667218782,111.19467143984264 669,121 C 697.8448332781218,130.80532856015736 726.8585460907362,178.67965156324667 756,190 C 785.1414539092638,201.32034843675333 814.4106489151769,176.08672230717065 849,159 C 883.5893510848231,141.91327769282935 923.4988582485563,132.97345920807064 952,144 C 980.5011417514437,155.02654079192936 997.593918090598,186.01944086054675 1019,197 C 1040.406081909402,207.98055913945325 1066.1254693890523,198.94877734974241 1100,178 C 1133.8745306109477,157.05122265025759 1175.9042043531924,124.18544974048353 1205,133 C 1234.0957956468076,141.81455025951647 1250.2577131981777,192.30942368832348 1272,193 C 1293.7422868018223,193.69057631167652 1321.0649428540967,144.57685550622259 1349,137 C 1376.9350571459033,129.42314449377741 1405.4825153854356,163.3831542867862 1439,178 C 1472.5174846145644,192.6168457132138 1511.0049956041612,187.89052734663252 1528,179 C 1544.9950043958388,170.10947265336748 1540.4975021979194,157.05473632668372 1536,144 C 1536,144 1536,722 1536,722 Z" stroke="none" stroke-width="0" fill="url(#radial-gradient)" class="transition-all duration-300 ease-in-out delay-150" style="transform-origin: center center;"/><defs><radialGradient id="radial-gradient" cx="0.5" cy="0.75" r="0"><stop offset="0%" stop-color="#77a6b680"/><stop offset="100%" stop-color="#395e6b80"/></radialGradient></defs><path transform="scale(1, -1)" d="M 0,722 V 0,216 C 32.796439274593396,237.83597007233593 65.59287854918679,259.67194014467185 90,257 C 114.40712145081321,254.32805985532815 130.42492507784624,227.14820949364858 157,211 C 183.57507492215376,194.85179050635142 220.70742113942833,189.73522188073395 249,196 C 277.29257886057167,202.26477811926605 296.74539036444054,219.9109029834156 329,224 C 361.25460963555946,228.0890970165844 406.31101740280957,218.6211661856037 438,208 C 469.68898259719043,197.3788338143963 488.0105400243209,185.6044322741697 512,199 C 535.9894599756791,212.3955677258303 565.6468224999072,250.9611047177175 594,249 C 622.3531775000928,247.0388952822825 649.4021699760508,204.55114885496053 678,194 C 706.5978300239492,183.44885114503947 736.7444975958896,204.83429986244042 765,223 C 793.2555024041104,241.16570013755958 819.6198396403909,256.1116516952777 848,241 C 876.3801603596091,225.88834830472229 906.7761438425479,180.71909335644858 939,182 C 971.2238561574521,183.28090664355142 1005.2755849894179,231.0119748789279 1037,252 C 1068.724415010582,272.9880251210721 1098.1215161997811,267.23300712783987 1120,256 C 1141.8784838002189,244.76699287216016 1156.2383502114574,228.0559966097128 1180,230 C 1203.7616497885426,231.9440033902872 1236.9250829543885,252.543006433309 1267,244 C 1297.0749170456115,235.456993566691 1324.0613179709885,197.7719776570512 1354,200 C 1383.9386820290115,202.2280223429488 1416.8296451616568,244.36908293848623 1453,242 C 1489.1703548383432,239.63091706151377 1528.6201013823838,192.75169058900394 1543,181 C 1557.3798986176162,169.24830941099606 1546.689949308808,192.62415470549803 1536,216 C 1536,216 1536,722 1536,722 Z" stroke="none" stroke-width="0" fill="url(#radial-gradient)" class="transition-all duration-300 ease-in-out delay-150" style="transform-origin: center center;"/><defs><radialGradient id="radial-gradient" cx="0.5" cy="0.75" r="0"><stop offset="0%" stop-color="#77a6b690"/><stop offset="100%" stop-color="#395e6b90"/></radialGradient></defs><path transform="scale(1, -1)" d="M 0,722 V 0,324 C 21.24370742377058,311.19331789840044 42.48741484754116,298.3866357968008 70,291 C 97.51258515245884,283.6133642031992 131.29404803360592,281.6467747111972 160,293 C 188.70595196639408,304.3532252888028 212.3363930180352,329.0262653584103 245,345 C 277.6636069819648,360.9737346415897 319.36037989425336,368.2481638551614 348,355 C 376.63962010574664,341.7518361448386 392.2220874049516,307.9810792209438 415,308 C 437.7779125950484,308.0189207790562 467.7512704859404,341.8275192610634 497,355 C 526.2487295140596,368.1724807389366 554.7728306512867,360.70884373480254 582,362 C 609.2271693487133,363.29115626519746 635.1574069089129,373.33710579972654 670,366 C 704.8425930910871,358.66289420027346 748.5975417130621,333.94273306629134 782,306 C 815.4024582869379,278.05726693370866 838.4524262388386,246.89196193510787 859,273 C 879.5475737611614,299.1080380648921 897.5927533315833,382.48941919327706 925,378 C 952.4072466684167,373.51058080672294 989.1765604348279,281.15036129178384 1016,276 C 1042.823439565172,270.84963870821616 1059.7010049291052,352.9091356395875 1093,375 C 1126.2989950708948,397.0908643604125 1176.0194198487518,359.2130961498662 1210,350 C 1243.9805801512482,340.7869038501338 1262.2213156758871,360.2384797609474 1283,363 C 1303.7786843241129,365.7615202390526 1327.0953174477004,351.832984806344 1355,334 C 1382.9046825522996,316.167015193656 1415.3974145333113,294.4295810136767 1452,283 C 1488.6025854666887,271.5704189863233 1529.315024419054,270.4486911389495 1544,279 C 1558.684975580946,287.5513088610505 1547.3424877904731,305.77565443052526 1536,324 C 1536,324 1536,722 1536,722 Z" stroke="none" stroke-width="0" fill="url(#radial-gradient)" class="transition-all duration-300 ease-in-out delay-150" style="transform-origin: center center;"/><defs><radialGradient id="radial-gradient" cx="0.5" cy="0.75" r="0"><stop offset="0%" stop-color="#77a6b6ff"/><stop offset="100%" stop-color="#395e6bff"/></radialGradient></defs><path transform="scale(1, -1)" d="M 0,722 V 0,487 C 31.97469651917156,485.3675472886123 63.94939303834312,483.7350945772245 94,486 C 124.05060696165688,488.2649054227755 152.1771243657991,494.42716897971434 179,494 C 205.8228756342009,493.57283102028566 231.34210949846062,486.5562295039181 257,500 C 282.6578905015394,513.4437704960819 308.45443764035844,547.3479130046132 334,530 C 359.54556235964156,512.6520869953868 384.8401399401054,444.05211847762905 416,443 C 447.1598600598946,441.94788152237095 484.1850025992196,508.4436130848702 512,529 C 539.8149974007804,549.5563869151298 558.4198496630162,524.17342918289 589,509 C 619.5801503369838,493.82657081710994 662.1355987487159,488.8626701835698 692,492 C 721.8644012512841,495.1373298164302 739.0377553421202,506.37589008283095 765,501 C 790.9622446578798,495.62410991716905 825.7133798828031,473.63376948510654 858,470 C 890.2866201171969,466.36623051489346 920.1087251266666,481.08903197674294 943,489 C 965.8912748733334,496.91096802325706 981.8517196105304,498.0101026079216 1011,493 C 1040.1482803894696,487.9898973920784 1082.4843964312126,476.87055759157045 1112,491 C 1141.5156035687874,505.12944240842955 1158.2106946646193,544.5076670257968 1186,535 C 1213.7893053353807,525.4923329742032 1252.6728249103094,467.09877430524233 1287,451 C 1321.3271750896906,434.90122569475767 1351.0980056941437,461.097235753234 1378,461 C 1404.9019943058563,460.902764246766 1428.9351523131152,434.51228268182166 1458,434 C 1487.0648476868848,433.48771731817834 1521.1613850533956,458.8536335194795 1535,472 C 1548.8386149466044,485.1463664805205 1542.419307473302,486.0731832402603 1536,487 C 1536,487 1536,722 1536,722 Z" stroke="none" stroke-width="0" fill="url(#radial-gradient)" class="transition-all duration-300 ease-in-out delay-150" style="transform-origin: center center;"/></svg>