<svg id="visual" viewBox="0 0 3000 800" width="3000" height="800" xmlns="http://www.w3.org/2000/svg" xmlns:xlink="http://www.w3.org/1999/xlink" version="1.1"><rect x="0" y="0" width="3000" height="800" fill="#487e91"></rect><path d="M0 417L167 169L333 122L500 129L667 79L833 425L1000 304L1167 168L1333 194L1500 87L1667 284L1833 132L2000 306L2167 432L2333 290L2500 362L2667 316L2833 109L3000 346L3000 801L2833 801L2667 801L2500 801L2333 801L2167 801L2000 801L1833 801L1667 801L1500 801L1333 801L1167 801L1000 801L833 801L667 801L500 801L333 801L167 801L0 801Z" fill="#7ca7b7"></path><path d="M0 147L167 428L333 319L500 342L667 230L833 341L1000 273L1167 176L1333 400L1500 415L1667 225L1833 452L2000 366L2167 413L2333 146L2500 461L2667 427L2833 284L3000 359L3000 801L2833 801L2667 801L2500 801L2333 801L2167 801L2000 801L1833 801L1667 801L1500 801L1333 801L1167 801L1000 801L833 801L667 801L500 801L333 801L167 801L0 801Z" fill="#87aebc"></path><path d="M0 311L167 319L333 228L500 506L667 461L833 311L1000 339L1167 295L1333 480L1500 358L1667 288L1833 351L2000 209L2167 414L2333 418L2500 458L2667 365L2833 201L3000 336L3000 801L2833 801L2667 801L2500 801L2333 801L2167 801L2000 801L1833 801L1667 801L1500 801L1333 801L1167 801L1000 801L833 801L667 801L500 801L333 801L167 801L0 801Z" fill="#93b4c1"></path><path d="M0 296L167 292L333 544L500 278L667 285L833 280L1000 504L1167 523L1333 489L1500 279L1667 288L1833 425L2000 432L2167 476L2333 319L2500 440L2667 361L2833 422L3000 481L3000 801L2833 801L2667 801L2500 801L2333 801L2167 801L2000 801L1833 801L1667 801L1500 801L1333 801L1167 801L1000 801L833 801L667 801L500 801L333 801L167 801L0 801Z" fill="#9ebbc6"></path><path d="M0 410L167 541L333 327L500 429L667 462L833 539L1000 452L1167 322L1333 456L1500 565L1667 424L1833 410L2000 509L2167 574L2333 446L2500 555L2667 486L2833 401L3000 454L3000 801L2833 801L2667 801L2500 801L2333 801L2167 801L2000 801L1833 801L1667 801L1500 801L1333 801L1167 801L1000 801L833 801L667 801L500 801L333 801L167 801L0 801Z" fill="#a9c2cc"></path><path d="M0 387L167 588L333 393L500 403L667 486L833 438L1000 436L1167 532L1333 594L1500 422L1667 413L1833 461L2000 605L2167 439L2333 536L2500 559L2667 443L2833 481L3000 410L3000 801L2833 801L2667 801L2500 801L2333 801L2167 801L2000 801L1833 801L1667 801L1500 801L1333 801L1167 801L1000 801L833 801L667 801L500 801L333 801L167 801L0 801Z" fill="#b4c9d1"></path><path d="M0 599L167 556L333 587L500 452L667 475L833 483L1000 485L1167 642L1333 477L1500 563L1667 450L1833 608L2000 561L2167 608L2333 640L2500 451L2667 533L2833 458L3000 579L3000 801L2833 801L2667 801L2500 801L2333 801L2167 801L2000 801L1833 801L1667 801L1500 801L1333 801L1167 801L1000 801L833 801L667 801L500 801L333 801L167 801L0 801Z" fill="#bfd0d6"></path><path d="M0 647L167 641L333 574L500 636L667 588L833 523L1000 680L1167 603L1333 649L1500 590L1667 631L1833 546L2000 521L2167 618L2333 609L2500 564L2667 648L2833 590L3000 516L3000 801L2833 801L2667 801L2500 801L2333 801L2167 801L2000 801L1833 801L1667 801L1500 801L1333 801L1167 801L1000 801L833 801L667 801L500 801L333 801L167 801L0 801Z" fill="#cad6db"></path><path d="M0 646L167 620L333 707L500 622L667 654L833 636L1000 689L1167 588L1333 587L1500 683L1667 612L1833 655L2000 700L2167 599L2333 575L2500 664L2667 573L2833 643L3000 567L3000 801L2833 801L2667 801L2500 801L2333 801L2167 801L2000 801L1833 801L1667 801L1500 801L1333 801L1167 801L1000 801L833 801L667 801L500 801L333 801L167 801L0 801Z" fill="#d5dde1"></path><path d="M0 717L167 731L333 643L500 709L667 664L833 708L1000 740L1167 703L1333 723L1500 638L1667 710L1833 726L2000 706L2167 741L2333 729L2500 690L2667 641L2833 703L3000 634L3000 801L2833 801L2667 801L2500 801L2333 801L2167 801L2000 801L1833 801L1667 801L1500 801L1333 801L1167 801L1000 801L833 801L667 801L500 801L333 801L167 801L0 801Z" fill="#e0e4e6"></path><path d="M0 691L167 692L333 689L500 723L667 717L833 738L1000 708L1167 774L1333 731L1500 706L1667 730L1833 761L2000 763L2167 720L2333 688L2500 728L2667 720L2833 751L3000 721L3000 801L2833 801L2667 801L2500 801L2333 801L2167 801L2000 801L1833 801L1667 801L1500 801L1333 801L1167 801L1000 801L833 801L667 801L500 801L333 801L167 801L0 801Z" fill="#ebebeb"></path></svg>