<svg id="visual" viewBox="0 0 3000 800" width="3000" height="800" xmlns="http://www.w3.org/2000/svg" xmlns:xlink="http://www.w3.org/1999/xlink" version="1.1"><rect x="0" y="0" width="3000" height="800" fill="#487e91"></rect><path d="M0 489L167 522L333 662L500 652L667 641L833 519L1000 615L1167 487L1333 501L1500 714L1667 643L1833 690L2000 605L2167 615L2333 605L2500 500L2667 599L2833 705L3000 669L3000 0L2833 0L2667 0L2500 0L2333 0L2167 0L2000 0L1833 0L1667 0L1500 0L1333 0L1167 0L1000 0L833 0L667 0L500 0L333 0L167 0L0 0Z" fill="#487889"></path><path d="M0 487L167 629L333 633L500 497L667 440L833 620L1000 576L1167 458L1333 446L1500 515L1667 523L1833 458L2000 594L2167 551L2333 668L2500 425L2667 679L2833 654L3000 561L3000 0L2833 0L2667 0L2500 0L2333 0L2167 0L2000 0L1833 0L1667 0L1500 0L1333 0L1167 0L1000 0L833 0L667 0L500 0L333 0L167 0L0 0Z" fill="#417081"></path><path d="M0 402L167 482L333 485L500 586L667 485L833 579L1000 366L1167 370L1333 366L1500 552L1667 562L1833 539L2000 515L2167 458L2333 572L2500 414L2667 395L2833 475L3000 592L3000 0L2833 0L2667 0L2500 0L2333 0L2167 0L2000 0L1833 0L1667 0L1500 0L1333 0L1167 0L1000 0L833 0L667 0L500 0L333 0L167 0L0 0Z" fill="#3a6879"></path><path d="M0 530L167 484L333 341L500 333L667 465L833 491L1000 412L1167 437L1333 457L1500 467L1667 431L1833 474L2000 510L2167 352L2333 312L2500 407L2667 527L2833 366L3000 336L3000 0L2833 0L2667 0L2500 0L2333 0L2167 0L2000 0L1833 0L1667 0L1500 0L1333 0L1167 0L1000 0L833 0L667 0L500 0L333 0L167 0L0 0Z" fill="#336172"></path><path d="M0 271L167 318L333 352L500 365L667 393L833 320L1000 251L1167 443L1333 376L1500 259L1667 357L1833 429L2000 405L2167 433L2333 306L2500 291L2667 380L2833 291L3000 334L3000 0L2833 0L2667 0L2500 0L2333 0L2167 0L2000 0L1833 0L1667 0L1500 0L1333 0L1167 0L1000 0L833 0L667 0L500 0L333 0L167 0L0 0Z" fill="#2c596a"></path><path d="M0 192L167 192L333 288L500 264L667 250L833 308L1000 350L1167 291L1333 226L1500 363L1667 210L1833 336L2000 324L2167 288L2333 271L2500 357L2667 241L2833 217L3000 299L3000 0L2833 0L2667 0L2500 0L2333 0L2167 0L2000 0L1833 0L1667 0L1500 0L1333 0L1167 0L1000 0L833 0L667 0L500 0L333 0L167 0L0 0Z" fill="#255263"></path><path d="M0 245L167 177L333 202L500 250L667 294L833 217L1000 278L1167 272L1333 238L1500 147L1667 150L1833 238L2000 268L2167 265L2333 267L2500 137L2667 260L2833 220L3000 220L3000 0L2833 0L2667 0L2500 0L2333 0L2167 0L2000 0L1833 0L1667 0L1500 0L1333 0L1167 0L1000 0L833 0L667 0L500 0L333 0L167 0L0 0Z" fill="#1d4a5b"></path><path d="M0 156L167 159L333 130L500 135L667 101L833 114L1000 164L1167 128L1333 177L1500 106L1667 172L1833 158L2000 160L2167 206L2333 155L2500 114L2667 215L2833 211L3000 135L3000 0L2833 0L2667 0L2500 0L2333 0L2167 0L2000 0L1833 0L1667 0L1500 0L1333 0L1167 0L1000 0L833 0L667 0L500 0L333 0L167 0L0 0Z" fill="#164354"></path><path d="M0 129L167 55L333 31L500 132L667 87L833 17L1000 30L1167 64L1333 111L1500 38L1667 49L1833 26L2000 83L2167 114L2333 34L2500 88L2667 91L2833 102L3000 138L3000 0L2833 0L2667 0L2500 0L2333 0L2167 0L2000 0L1833 0L1667 0L1500 0L1333 0L1167 0L1000 0L833 0L667 0L500 0L333 0L167 0L0 0Z" fill="#0d3c4d"></path></svg>